<svg
  xmlns="http://www.w3.org/2000/svg"
  width="24"
  height="24"
  viewBox="0 0 24 24"
  fill="none"
  stroke="currentColor"
  stroke-width="2"
  stroke-linecap="round"
  stroke-linejoin="round"
>
  <path d="M 3.5826175,14.598819 1.8855606,12.901763 a 1.6,1.6 0 0 1 0.1018241,-2.364565 15.832,15.832 0 0 1 6.6185188,-3.1452107 15.6,15.6 0 0 1 6.7882255,-6e-7 15.832,15.832 0 0 1 6.641146,3.1678383 1.6,1.6 0 0 1 0.107482,2.358908 L 20.4457,14.615789 a 1.6,1.6 0 0 1 -2.10435,0.158393 10.272,10.272 0 0 0 -1.985557,-1.193597 1.6,1.6 0 0 1 -0.939037,-1.448155 v -1.436841 a 12.8,12.8 0 0 0 -6.7882249,-10e-7 l -5e-7,1.436843 a 1.6,1.6 0 0 1 -0.939037,1.448154 10.272,10.272 0 0 0 -1.9855563,1.193598 1.6,1.6 0 0 1 -2.12132,-0.175361 z" />
</svg>
